<svg xmlns="http://www.w3.org/2000/svg" style="display: none;">
    <symbol id="all" viewBox="0 0 24 24">
        <circle cx="12" cy="12" r="10" fill="none" stroke="currentColor" stroke-width="2" />
        <path d="M12 8l1.5 3h3l-2.25 1.75L15 16l-3-2-3 2 1.75-3.25L7.5 11h3z"
            fill="none" stroke="currentColor" stroke-width="2" stroke-linecap="round"
            stroke-linejoin="round" />
    </symbol>

    <symbol id="tab" viewBox="0 0 24 24">
        <path d="M3 5h6l2 3h10a2 2 0 0 1 2 2v8a2 2 0 0 1-2 2H3a2 2 0 0 1-2-2V7a2 2 0 0 1 2-2z"
            fill="none" stroke="currentColor" stroke-width="2" stroke-linecap="round"
            stroke-linejoin="round" />
    </symbol>

    <symbol id="search" viewBox="0 0 24 24">
        <circle cx="11" cy="11" r="8" fill="none"
            stroke="currentColor" stroke-width="2" stroke-linecap="round" stroke-linejoin="round" />
        <line x1="21" y1="21" x2="16.65" y2="16.65"
            stroke="currentColor" stroke-width="2" stroke-linecap="round" stroke-linejoin="round" />
    </symbol>

    <symbol id="avatar" viewBox="0 0 24 24">
        <circle cx="12" cy="7" r="4"
            fill="none" stroke="currentColor" stroke-width="2" stroke-linecap="round"
            stroke-linejoin="round" />
        <path d="M4 21c0-4 4-6 8-6s8 2 8 6"
            fill="none" stroke="currentColor" stroke-width="2" stroke-linecap="round"
            stroke-linejoin="round" />
    </symbol>


    <symbol id="suggested" viewBox="0 0 24 24">
        <path d="M9 18h6" fill="none" stroke="currentColor" stroke-width="2" stroke-linecap="round"
            stroke-linejoin="round" />
        <path d="M10 22h4" fill="none" stroke="currentColor" stroke-width="2" stroke-linecap="round"
            stroke-linejoin="round" />
        <path
            d="M12 2a7 7 0 0 0-4.2 12.7c.5.4.7 1.1.7 1.8v.5a1 1 0 0 0 1 1h4a1 1 0 0 0 1-1v-.5c0-.7.2-1.4.7-1.8A7 7 0 0 0 12 2z"
            fill="none" stroke="currentColor" stroke-width="2" stroke-linecap="round"
            stroke-linejoin="round" />
    </symbol>

    <symbol id="hash" viewBox="0 0 24 24">
        <line x1="9" y1="3" x2="6" y2="21" stroke="currentColor" stroke-width="2" stroke-linecap="round" />
        <line x1="18" y1="3" x2="15" y2="21" stroke="currentColor" stroke-width="2" stroke-linecap="round" />
        <line x1="3" y1="9" x2="21" y2="9" stroke="currentColor" stroke-width="2" stroke-linecap="round" />
        <line x1="3" y1="15" x2="21" y2="15" stroke="currentColor" stroke-width="2" stroke-linecap="round" />
    </symbol>

    <symbol id="expand" viewBox="0 0 24 24">
        <path d="M15 3h6v6" fill="none" stroke="currentColor" stroke-width="2" stroke-linecap="round"
            stroke-linejoin="round" />
        <path d="M9 21H3v-6" fill="none" stroke="currentColor" stroke-width="2" stroke-linecap="round"
            stroke-linejoin="round" />
        <path d="M21 3l-7 7" fill="none" stroke="currentColor" stroke-width="2" stroke-linecap="round"
            stroke-linejoin="round" />
        <path d="M3 21l7-7" fill="none" stroke="currentColor" stroke-width="2" stroke-linecap="round"
            stroke-linejoin="round" />
    </symbol>

    <symbol id="favorites" viewBox="0 0 24 24">
        <path
            d="M12 17.27L18.18 21l-1.64-7.03
                 L22 9.24l-7.19-.61L12 2 9.19 8.63
                 2 9.24l5.46 4.73L5.82 21z"
            stroke="currentColor" stroke-width="2" stroke-linecap="round"
            stroke-linejoin="round" />
    </symbol>
</svg>
  